<?xml version="1.0" encoding="UTF-8" standalone="no"?>
<!DOCTYPE svg PUBLIC "-//W3C//DTD SVG 20010904//EN" "http://www.w3.org/TR/2001/REC-SVG-20010904/DTD/svg10.dtd">
<svg version="1.0" xmlns="http://www.w3.org/2000/svg" width="891.000000pt" height="484.000000pt" viewBox="0 0 891.000000 484.000000" preserveAspectRatio="xMidYMid meet"><script xmlns="" id="argent-x-extension" data-extension-id="{51e0c76c-7dbc-41ba-a45d-c579be84301b}"/>
<metadata>
Created by potrace 1.16, written by Peter Selinger 2001-2019
</metadata>
<g transform="translate(0.000000,484.000000) scale(0.100000,-0.100000)" fill="#000000" stroke="none">
<path d="M247 4749 c-111 -26 -177 -111 -177 -226 0 -69 35 -140 88 -179 22 -16 895 -452 1941 -968 l1901 -940 -112 -58 c-62 -32 -925 -467 -1917 -966 -1151 -579 -1815 -918 -1834 -937 -95 -95 -88 -261 15 -349 21 -19 59 -39 83 -45 63 -16 4288 -16 4350 0 57 15 128 76 150 131 47 117 -4 251 -115 302 l-45 21 -1694 5 -1693 5 1679 836 c1585 789 1681 838 1720 883 71 81 79 195 19 285 -38 56 36 18 -1726 881 -701 343 -1383 677 -1515 742 l-239 118 1707 0 c1225 0 1721 3 1752 11 57 14 127 76 150 131 22 53 22 141 2 188 -20 45 -71 94 -122 117 -38 17 -143 18 -2185 20 -1236 0 -2161 -3 -2183 -8z"/>
<path d="M5908 4475 c-50 -16 -90 -56 -117 -115 -14 -32 -16 -173 -16 -1425 l0 -1390 22 -115 c33 -171 68 -282 128 -407 109 -229 223 -375 400 -517 240 -191 453 -282 763 -327 126 -18 432 -6 557 21 514 111 918 462 1098 955 61 165 87 331 87 547 0 274 -50 500 -156 710 -279 555 -834 863 -1456 810 -242 -21 -419 -78 -623 -200 -132 -79 -237 -170 -331 -285 l-64 -78 -2 844 -3 844 -30 48 c-18 29 -45 56 -67 67 -50 26 -132 31 -190 13z m1685 -1668 c115 -31 264 -99 352 -162 89 -63 224 -199 270 -270 151 -237 221 -520 195 -790 -27 -287 -120 -496 -310 -698 -288 -307 -745 -416 -1157 -278 -167 55 -297 135 -418 256 -126 127 -201 247 -262 420 -122 351 -73 784 120 1075 161 241 418 411 704 465 126 23 382 14 506 -18z"/>
</g>
<script xmlns=""/></svg>